<svg width="25" height="25" viewBox="0 0 25 25" fill="none" xmlns="http://www.w3.org/2000/svg">
<path d="M9.875 21.5V15.5C9.875 14.9696 10.0857 14.4609 10.4608 14.0858C10.8359 13.7107 11.3446 13.5 11.875 13.5H13.875C14.4054 13.5 14.9141 13.7107 15.2892 14.0858C15.6643 14.4609 15.875 14.9696 15.875 15.5V21.5M5.875 12.5H3.875L12.875 3.5L21.875 12.5H19.875V19.5C19.875 20.0304 19.6643 20.5391 19.2892 20.9142C18.9141 21.2893 18.4054 21.5 17.875 21.5H7.875C7.34457 21.5 6.83586 21.2893 6.46079 20.9142C6.08571 20.5391 5.875 20.0304 5.875 19.5V12.5Z" stroke="#fff" stroke-width="2" stroke-linecap="round" stroke-linejoin="round"/>
</svg>
