<svg width="25" height="25" viewBox="0 0 25 25" fill="none" xmlns="http://www.w3.org/2000/svg">
<path d="M8.375 9.5H16.375M8.375 13.5H14.375M18.375 4.5C19.1706 4.5 19.9337 4.81607 20.4963 5.37868C21.0589 5.94129 21.375 6.70435 21.375 7.5V15.5C21.375 16.2956 21.0589 17.0587 20.4963 17.6213C19.9337 18.1839 19.1706 18.5 18.375 18.5H13.375L8.375 21.5V18.5H6.375C5.57935 18.5 4.81629 18.1839 4.25368 17.6213C3.69107 17.0587 3.375 16.2956 3.375 15.5V7.5C3.375 6.70435 3.69107 5.94129 4.25368 5.37868C4.81629 4.81607 5.57935 4.5 6.375 4.5H18.375Z" stroke="#666D80" stroke-width="2" stroke-linecap="round" stroke-linejoin="round"/>
</svg>
